# xmcd
#
# Track frame offsets: 
#        150
#        22067
#        100624
#        139581
#        199055
#        246707
#        260378
#        276589
#        293160
#
# Disc length: 4278 seconds
#
# Revision: 2
# Processed by: cddbd v1.5.2PL0 Copyright (c) Steve Scherf et al.
# Submitted via: ExactAudioCopy v1.3
#
DISCID=8c10b409
DTITLE=Royal Concertgebouw Orchestra - RCO 125 anniversary edition - Th
DTITLE=e Radio Legacy, CD 067 [1970-1980]
DYEAR=2013
DGENRE=Classical
TTITLE0=Hector Berlioz: Roméo et Juliette (1839), op. 17 H17 - I. Intr
TTITLE0=oduction. Combats - Tumulte - Intervention du Prince
TTITLE1=Hector Berlioz: Roméo et Juliette (1839), op. 17 H17 - IV. Scè
TTITLE1=ne d’amour
TTITLE2=Hector Berlioz: Roméo et Juliette (1839), op. 17 H17 - III. Sc
TTITLE2=herzo. La reine Mab, ou la fée des songes
TTITLE3=Hector Berlioz: Roméo et Juliette (1839), op. 17 H17 - II. Rom
TTITLE3=éo seul. Tristesse – Bruits lontains de concert et bal – Grand
TTITLE3=e Fête chez Capulet
TTITLE4=Tadeusz Baird: Variazione senza tema (1961-1962)
TTITLE5=Witold Lutosławski: Paroles tissées (1965) - I. Première tapis
TTITLE5=serie. Un chat qui s'émerveille
TTITLE6=Witold Lutosławski: Paroles tissées (1965) - II. Deuxième tapi
TTITLE6=sserie. Quand le jour a rouvert les branches
TTITLE7=Witold Lutosławski: Paroles tissées (1965) - III. Troisième ta
TTITLE7=pisserie. Mille chevaux hors d'haleine
TTITLE8=Witold Lutosławski: Paroles tissées (1965) - IV. Quatrième tap
TTITLE8=isserie. Dormez cette pâleur
EXTD=
EXTT0=
EXTT1=
EXTT2=
EXTT3=
EXTT4=
EXTT5=
EXTT6=
EXTT7=
EXTT8=
PLAYORDER=
